<svg xmlns="http://www.w3.org/2000/svg" width="375" viewBox="0 0 375 375" height="375" version="1.0"><defs><clipPath id="a"><path d="M 24.546875 82.621094 L 239.796875 82.621094 L 239.796875 303.121094 L 24.546875 303.121094 Z M 24.546875 82.621094"/></clipPath><clipPath id="b"><path d="M 131 158 L 293 158 L 293 313.886719 L 131 313.886719 Z M 131 158"/></clipPath></defs><path fill="#FFF" d="M-37.5 -37.5H412.5V412.5H-37.5z"/><path fill="#FFF" d="M-37.5 -37.5H412.5V412.5H-37.5z"/><path fill="#B82403" d="M-37.5 -37.5H412.5V412.5H-37.5z"/><g clip-path="url(#a)"><path fill="#FFF" d="M 163.710938 82.621094 L 24.5625 82.621094 C 24.5625 97.476562 36.617188 109.515625 51.488281 109.515625 L 163.710938 109.515625 L 163.710938 109.535156 C 190.828125 109.535156 212.808594 131.488281 212.808594 158.570312 C 212.808594 185.652344 190.828125 207.605469 163.710938 207.605469 L 136.785156 207.605469 L 136.785156 303.117188 C 151.65625 303.117188 163.710938 291.074219 163.710938 276.222656 L 163.710938 234.515625 C 205.707031 234.515625 239.75 200.515625 239.75 158.570312 C 239.75 116.625 205.707031 82.621094 163.710938 82.621094"/></g><path fill="#FFF" d="M 163.710938 122.640625 L 70.664062 122.640625 C 70.664062 137.496094 82.71875 149.535156 97.589844 149.535156 L 163.710938 149.535156 L 163.710938 122.640625"/><path fill="#FFF" d="M 163.710938 164.117188 L 103.644531 164.117188 C 103.644531 178.96875 115.703125 191.007812 130.570312 191.007812 L 163.710938 191.007812 L 163.710938 164.117188"/><g clip-path="url(#b)"><path fill="#FFF" d="M 285.59375 305.730469 L 226.785156 305.730469 L 245.871094 286.148438 C 246.195312 286.140625 246.507812 286.078125 246.808594 285.953125 L 246.933594 285.894531 L 247.003906 285.894531 C 247.734375 285.609375 248.234375 285.097656 248.511719 284.363281 C 261.078125 254.207031 273.652344 224.046875 286.230469 193.890625 C 288.007812 189.617188 289.785156 185.335938 291.570312 181.054688 C 291.699219 180.792969 291.78125 180.519531 291.820312 180.230469 C 294.277344 172.136719 291.03125 163.253906 282.835938 159.847656 C 281.851562 159.445312 280.839844 159.144531 279.796875 158.941406 C 278.753906 158.738281 277.703125 158.636719 276.640625 158.640625 C 275.578125 158.640625 274.527344 158.746094 273.484375 158.949219 C 272.445312 159.15625 271.433594 159.460938 270.449219 159.863281 C 269.464844 160.265625 268.53125 160.761719 267.644531 161.34375 C 266.757812 161.929688 265.9375 162.59375 265.179688 163.339844 C 264.421875 164.082031 263.742188 164.890625 263.140625 165.769531 C 262.542969 166.644531 262.03125 167.570312 261.613281 168.546875 L 223.890625 259.019531 C 222.109375 263.292969 220.328125 267.570312 218.554688 271.84375 C 218.34375 272.375 218.285156 272.917969 218.386719 273.480469 C 218.488281 274.042969 218.730469 274.53125 219.113281 274.953125 C 219.113281 277.390625 219.035156 279.824219 219 282.257812 C 219 283.402344 219 284.546875 219 285.6875 L 218.65625 305.707031 L 134.234375 305.707031 C 130.074219 305.707031 130.074219 313.707031 134.234375 313.707031 L 285.59375 313.707031 C 289.753906 313.707031 289.765625 305.730469 285.59375 305.730469 Z M 286.734375 175.851562 L 268.445312 168.238281 C 274.402344 160.488281 287.605469 166.066406 286.769531 175.851562 Z M 261.589844 183.636719 L 265.898438 173.460938 L 284.996094 181.464844 L 248.421875 269.226562 L 244.273438 279.355469 L 225.160156 271.355469 C 237.332031 242.132812 249.503906 212.894531 261.679688 183.636719 Z M 224.910156 278.921875 L 239.039062 284.796875 L 230.910156 293.132812 L 224.714844 290.546875 C 224.800781 286.675781 224.863281 282.800781 224.910156 278.921875 Z M 224.910156 278.921875"/></g></svg>