<svg xmlns="http://www.w3.org/2000/svg" width="375" viewBox="0 0 375 375" height="375" version="1.0"><defs><clipPath id="a"><path d="M 70.5 84.445312 L 285.75 84.445312 L 285.75 290.695312 L 70.5 290.695312 Z M 70.5 84.445312"/></clipPath><clipPath id="b"><path d="M 182.136719 292 L 206.136719 292 L 206.136719 306.015625 L 182.136719 306.015625 Z M 182.136719 292"/></clipPath><clipPath id="c"><path d="M 125.210938 312.195312 L 275.210938 312.195312 L 275.210938 324.195312 L 125.210938 324.195312 Z M 125.210938 312.195312"/></clipPath></defs><path fill="#FFF" d="M-37.5 -37.5H412.5V412.5H-37.5z"/><path fill="#FFF" d="M-37.5 -37.5H412.5V412.5H-37.5z"/><path fill="#B82403" d="M-37.5 -37.5H412.5V412.5H-37.5z"/><g clip-path="url(#a)"><path fill="#FFF" d="M 209.667969 84.449219 L 70.515625 84.449219 C 70.515625 99.304688 82.570312 111.34375 97.441406 111.34375 L 209.667969 111.34375 L 209.667969 111.359375 C 236.78125 111.359375 258.761719 133.3125 258.761719 160.398438 C 258.761719 187.480469 236.78125 209.433594 209.667969 209.433594 L 182.738281 209.433594 L 182.738281 304.945312 C 197.613281 304.945312 209.667969 292.898438 209.667969 278.050781 L 209.667969 236.34375 C 251.664062 236.34375 285.707031 202.34375 285.707031 160.398438 C 285.707031 118.449219 251.664062 84.449219 209.667969 84.449219"/></g><path fill="#FFF" d="M 209.667969 124.464844 L 116.617188 124.464844 C 116.617188 139.320312 128.671875 151.363281 143.542969 151.363281 L 209.667969 151.363281 L 209.667969 124.464844"/><path fill="#FFF" d="M 209.667969 165.945312 L 149.601562 165.945312 C 149.601562 180.796875 161.65625 192.835938 176.527344 192.835938 L 209.667969 192.835938 L 209.667969 165.945312"/><g clip-path="url(#b)"><path fill="#FFF" d="M 194.507812 306.152344 C 195.144531 306.152344 195.660156 305.90625 196.058594 305.410156 L 206.324219 292.730469 L 182.691406 292.730469 L 192.957031 305.410156 C 193.355469 305.90625 193.875 306.152344 194.507812 306.152344 Z M 194.507812 306.152344"/></g><g clip-path="url(#c)"><path fill="#FFF" d="M 125.210938 312.238281 L 275.210938 312.238281 L 275.210938 324.148438 L 125.210938 324.148438 Z M 125.210938 312.238281"/></g></svg>